<?xml version="1.0" encoding="utf-8"?>
<!-- Generator: Adobe Illustrator 16.0.0, SVG Export Plug-In . SVG Version: 6.00 Build 0)  -->
<!DOCTYPE svg PUBLIC "-//W3C//DTD SVG 1.1//EN" "http://www.w3.org/Graphics/SVG/1.1/DTD/svg11.dtd">
<svg version="1.1" id="Layer_1" xmlns="http://www.w3.org/2000/svg" xmlns:xlink="http://www.w3.org/1999/xlink" x="0px" y="0px"
	 width="23.503px" height="17.235px" viewBox="0 0 23.503 17.235" enable-background="new 0 0 23.503 17.235" xml:space="preserve">
<path id="shopping-cart-icon_1_" fill="#FB6D45" d="M23.503,0.21l-0.828,1.963h-1.518l-3.65,10.392l-12.354-0.17L0,2.087
	l16.753-0.315l-2.896,8.67l2.248,0.175L18.823,0L23.503,0.21z M14.351,14.167c-0.732-0.221-1.525,0.261-1.771,1.076
	s0.148,1.655,0.881,1.876c0.732,0.222,1.525-0.26,1.771-1.074C15.478,15.229,15.085,14.389,14.351,14.167z M9.306,14.228
	c-0.691-0.199-1.443,0.304-1.678,1.122s0.135,1.643,0.828,1.842c0.691,0.199,1.443-0.304,1.678-1.122S9.999,14.426,9.306,14.228z"/>
</svg>
