<?xml version="1.0" encoding="utf-8"?>
<!-- Generator: Adobe Illustrator 16.0.0, SVG Export Plug-In . SVG Version: 6.00 Build 0)  -->
<!DOCTYPE svg PUBLIC "-//W3C//DTD SVG 1.1//EN" "http://www.w3.org/Graphics/SVG/1.1/DTD/svg11.dtd">
<svg version="1.1" id="Layer_1" xmlns="http://www.w3.org/2000/svg" xmlns:xlink="http://www.w3.org/1999/xlink" x="0px" y="0px"
	 width="21.906px" height="21.483px" viewBox="0 0 21.906 21.483" enable-background="new 0 0 21.906 21.483" xml:space="preserve">
<path id="facebook-square-icon" fill="#FB6D45" d="M0,0v21.483h21.484l0.422-20.386L0,0z M14.275,5.771c0,0-1.193,0-1.668,0
	c-0.59,0-0.713,0.24-0.713,0.85c0,0.508,0,1.473,0,1.473l2.529,0.172l-0.377,2.412h-2.152l0.211,7.44l-3.293,0.278v-7.687
	L7.1,10.898l0.109-2.806l1.576,0.224c0,0,0.027-0.601,0.027-2.284c0-1.934,1.035-2.943,3.328-2.943c0.375,0,2.135,0,2.135,0V5.771z"
	/>
</svg>
